<?xml version="1.0" encoding="utf-8"?>
<!-- Generator: Adobe Illustrator 16.0.0, SVG Export Plug-In . SVG Version: 6.00 Build 0)  -->
<!DOCTYPE svg PUBLIC "-//W3C//DTD SVG 1.1//EN" "http://www.w3.org/Graphics/SVG/1.1/DTD/svg11.dtd">
<svg version="1.1" id="Layer_1" xmlns="http://www.w3.org/2000/svg" xmlns:xlink="http://www.w3.org/1999/xlink" x="0px" y="0px"
	 width="50px" height="48px" viewBox="0 0 50 48" enable-background="new 0 0 50 48" xml:space="preserve">
<g>
	<g>
		<path fill="#C59362" d="M32.65,1.915c2.805,0,6.247,1.979,7.65,4.4l7.648,13.199c1.402,2.421,1.402,6.38,0,8.802l-7.648,13.199
			c-1.403,2.42-4.846,4.398-7.65,4.398H17.352c-2.805,0-6.246-1.979-7.649-4.398l-7.65-13.199c-1.402-2.422-1.402-6.381,0-8.802
			l7.65-13.199c1.403-2.421,4.845-4.4,7.649-4.4H32.65z"/>
		<path fill="#C59362" d="M32.65,1.915c2.805,0,6.247,1.979,7.65,4.4l7.648,13.199c1.402,2.421,1.402,6.38,0,8.802l-7.648,13.199
			c-1.403,2.42-4.846,4.398-7.65,4.398H17.352c-2.805,0-6.246-1.979-7.649-4.398l-7.65-13.199c-1.402-2.422-1.402-6.381,0-8.802
			l7.65-13.199c1.403-2.421,4.845-4.4,7.649-4.4H32.65z"/>
	</g>
	<path id="path9-5_3_" fill="#FFFFFF" d="M14.366,22.652c-0.047,0,0.514,1.207,0.529,1.207c1.224,2.219,3.582,3.6,7.561,3.981
		c-0.568,0.43-1.25,1.25-1.345,2.193c-0.714,0.461-2.149,0.613-3.266,0.262c-1.564-0.494-2.163-3.588-4.505-3.146
		c-0.507,0.096-0.406,0.43,0.032,0.713c0.714,0.461,1.386,1.039,1.903,2.27c0.398,0.943,1.235,2.631,3.882,2.631
		c1.049,0,1.785-0.127,1.785-0.127s0.02,2.41,0.02,3.348c0,1.08-1.46,1.385-1.46,1.904c0,0.205,0.484,0.225,0.872,0.225
		c0.767,0,2.362-0.641,2.362-1.764c0-0.891,0.015-3.891,0.015-4.416c0-1.146,0.615-1.512,0.615-1.512s0.076,6.125-0.146,6.947
		c-0.262,0.965-0.735,0.828-0.735,1.258c0,0.643,1.922,0.158,2.559-1.248c0.492-1.096,0.276-7.104,0.276-7.104l0.525-0.012
		c0,0,0.029,2.752,0.011,4.01c-0.018,1.301-0.106,2.947,0.667,3.725c0.509,0.51,2.155,1.406,2.155,0.588
		c0-0.477-0.902-0.867-0.902-2.154v-5.924c0.722,0,0.613,1.947,0.613,1.947l0.052,3.621c0,0-0.158,1.318,1.429,1.869
		c0.56,0.197,1.756,0.248,1.813-0.08s-1.441-0.818-1.456-1.84c-0.009-0.621,0.028-0.986,0.028-3.693s-0.364-3.707-1.632-4.504
		c3.911-0.402,6.333-1.369,7.513-3.959c0.091,0.002,0.48-1.209,0.43-1.209c0.265-0.978,0.409-2.135,0.436-3.504
		c-0.007-3.716-1.785-5.029-2.127-5.646c0.504-2.813-0.084-4.092-0.357-4.531c-1.008-0.358-3.506,0.922-4.872,1.823
		c-2.224-0.649-6.928-0.587-8.691,0.168c-3.255-2.33-4.977-1.973-4.977-1.973s-1.113,1.993-0.295,4.911
		c-1.07,1.364-1.868,2.329-1.868,4.887C13.814,20.236,13.984,21.526,14.366,22.652L14.366,22.652z"/>
</g>
</svg>
