<?xml version="1.0" encoding="utf-8"?>
<!-- Generator: Adobe Illustrator 16.0.0, SVG Export Plug-In . SVG Version: 6.00 Build 0)  -->
<!DOCTYPE svg PUBLIC "-//W3C//DTD SVG 1.1//EN" "http://www.w3.org/Graphics/SVG/1.1/DTD/svg11.dtd">
<svg version="1.1" id="Layer_1" xmlns="http://www.w3.org/2000/svg" xmlns:xlink="http://www.w3.org/1999/xlink" x="0px" y="0px"
	 width="50px" height="48px" viewBox="0 0 50 48" enable-background="new 0 0 50 48" xml:space="preserve">
<g>
	<g>
		<path fill="#C59362" d="M32.649,1.915c2.805,0,6.247,1.979,7.649,4.4l7.649,13.199c1.402,2.421,1.402,6.38,0,8.802l-7.649,13.199
			c-1.402,2.42-4.845,4.398-7.649,4.398H17.351c-2.805,0-6.247-1.979-7.649-4.398L2.052,28.316c-1.402-2.422-1.402-6.381,0-8.802
			L9.701,6.315c1.402-2.421,4.845-4.4,7.649-4.4H32.649z"/>
		<path fill="#C59362" d="M32.649,1.915c2.805,0,6.247,1.979,7.649,4.4l7.649,13.199c1.402,2.421,1.402,6.38,0,8.802l-7.649,13.199
			c-1.402,2.42-4.845,4.398-7.649,4.398H17.351c-2.805,0-6.247-1.979-7.649-4.398L2.052,28.316c-1.402-2.422-1.402-6.381,0-8.802
			L9.701,6.315c1.402-2.421,4.845-4.4,7.649-4.4H32.649z"/>
	</g>
	<g>
		<rect x="10" y="16.915" fill="#FFFFFF" width="7" height="19.999"/>
		<circle fill="#FFFFFF" cx="13.5" cy="10.415" r="3.5"/>
		<path fill="#FFFFFF" d="M40,25.924c0-5.397-1.164-9.009-7.455-9.009c-3.023,0-5.053,1.124-5.883,2.699h-0.086v-2.699H21v19.999
			h5.828v-9.912c0-2.613,0.494-5.146,3.729-5.146c3.186,0,3.443,2.989,3.443,5.313v9.744h6V25.924z"/>
	</g>
</g>
</svg>
