<?xml version="1.0" encoding="utf-8"?>
<!-- Generator: Adobe Illustrator 16.0.0, SVG Export Plug-In . SVG Version: 6.00 Build 0)  -->
<!DOCTYPE svg PUBLIC "-//W3C//DTD SVG 1.1//EN" "http://www.w3.org/Graphics/SVG/1.1/DTD/svg11.dtd">
<svg version="1.1" id="Type" xmlns="http://www.w3.org/2000/svg" xmlns:xlink="http://www.w3.org/1999/xlink" x="0px" y="0px"
	 width="300px" height="100px" viewBox="0 0 300 100" enable-background="new 0 0 300 100" xml:space="preserve">
<path fill="#C79463" d="M28.094,74.359v-1.83c-2.661-0.269-5.145-1.087-7.453-2.454c-2.307-1.367-4.206-3.174-5.694-5.42
	c-0.513-0.659-0.769-1.44-0.769-2.344c0-1.099,0.36-2.008,1.081-2.729c0.72-0.72,1.629-1.08,2.728-1.08
	c0.586,0,1.104,0.135,1.556,0.403s0.897,0.61,1.337,1.025s0.879,0.873,1.318,1.373s0.939,0.982,1.501,1.446
	c0.562,0.464,1.196,0.885,1.904,1.264c0.708,0.379,1.538,0.641,2.49,0.787V44.44c-1.587-0.415-3.064-1.08-4.431-1.996
	c-1.368-0.915-2.551-2.014-3.552-3.296c-1.001-1.281-1.782-2.697-2.344-4.248c-0.562-1.55-0.842-3.168-0.842-4.852
	c0-1.709,0.269-3.345,0.806-4.908c0.537-1.562,1.294-2.984,2.271-4.266c0.976-1.282,2.148-2.393,3.516-3.333
	c1.367-0.939,2.893-1.63,4.578-2.069v-2.27c0-1.1,0.36-2.009,1.081-2.729c0.72-0.72,1.629-1.08,2.728-1.08s2.008,0.36,2.728,1.08
	s1.081,1.629,1.081,2.729v2.307c0.879,0.22,1.758,0.537,2.637,0.952s1.708,0.91,2.49,1.483c0.781,0.573,1.507,1.227,2.179,1.959
	c0.671,0.732,1.239,1.526,1.703,2.381c0.17,0.317,0.305,0.635,0.403,0.951c0.097,0.318,0.146,0.685,0.146,1.1
	c0,1.098-0.36,2.008-1.08,2.728c-0.721,0.721-1.63,1.081-2.729,1.081c-0.708,0-1.282-0.146-1.721-0.439s-0.855-0.66-1.245-1.1
	c-0.391-0.439-0.793-0.921-1.208-1.446c-0.416-0.524-0.94-1.007-1.575-1.446v14.429c1.708,0.61,3.29,1.471,4.743,2.582
	c1.452,1.111,2.704,2.393,3.753,3.845c1.049,1.453,1.868,3.04,2.454,4.761c0.586,1.722,0.879,3.497,0.879,5.329
	c0,1.904-0.274,3.734-0.824,5.492c-0.549,1.758-1.336,3.376-2.362,4.853c-1.025,1.478-2.265,2.79-3.717,3.937
	c-1.453,1.148-3.094,2.051-4.925,2.711v2.709c0,0.514-0.098,1.001-0.293,1.465c-0.196,0.464-0.47,0.873-0.824,1.228
	c-0.354,0.354-0.764,0.628-1.227,0.823c-0.464,0.195-0.952,0.293-1.465,0.293c-0.537,0-1.038-0.098-1.501-0.293
	c-0.464-0.195-0.867-0.47-1.208-0.823c-0.342-0.354-0.61-0.764-0.806-1.228C28.191,75.36,28.094,74.873,28.094,74.359z
	 M28.094,23.676c-2.344,1.515-3.516,3.59-3.516,6.227c0,1.221,0.305,2.416,0.916,3.588c0.61,1.172,1.477,2.076,2.6,2.711V23.676z
	 M35.711,63.08c0.732-0.586,1.367-1.165,1.904-1.739c0.537-0.573,0.97-1.184,1.3-1.831c0.329-0.646,0.573-1.354,0.732-2.124
	c0.158-0.769,0.238-1.642,0.238-2.618c0-1.538-0.342-3.039-1.025-4.504c-0.684-1.465-1.734-2.661-3.149-3.59V63.08z"/>
<path fill="#6D4D2B" d="M61.273,16.791c0.39-0.854,0.903-1.507,1.538-1.959c0.635-0.451,1.331-0.678,2.087-0.678
	c0.537,0,1.038,0.104,1.501,0.312c0.463,0.208,0.866,0.495,1.208,0.86c0.342,0.367,0.61,0.788,0.806,1.264
	c0.195,0.477,0.293,0.983,0.293,1.52c-0.073,0.831-0.256,1.478-0.549,1.941c-5.225,10.693-7.837,21.387-7.837,32.08
	c0,5.298,0.683,10.675,2.051,16.132c1.367,5.456,3.32,10.833,5.859,16.132c0.146,0.316,0.262,0.622,0.348,0.915
	c0.085,0.293,0.128,0.622,0.128,0.989c0,1.098-0.36,2.025-1.08,2.783c-0.721,0.756-1.63,1.135-2.729,1.135
	c-0.782,0-1.465-0.201-2.051-0.604c-0.586-0.402-1.099-1.068-1.538-1.995c-5.689-11.793-8.533-23.633-8.533-35.523
	C52.777,40.181,55.609,28.413,61.273,16.791z"/>
<path fill="#6D4D2B" d="M85.114,20.417c-1.001,2.148-1.501,4.37-1.501,6.665c0,2.417,0.549,4.969,1.648,7.654
	c0.171,0.439,0.256,0.866,0.256,1.281c0,0.854-0.305,1.587-0.916,2.197c-0.61,0.61-1.342,0.916-2.197,0.916
	c-0.83,0-1.575-0.33-2.234-0.989c-3.686-4.419-5.53-8.789-5.53-13.11c0-1.05,0.116-2.179,0.348-3.388
	c0.232-1.208,0.604-2.38,1.117-3.516c0.513-1.135,1.172-2.093,1.978-2.874s1.771-1.172,2.893-1.172c0.61,0,1.196,0.115,1.758,0.348
	c0.562,0.232,1.044,0.556,1.446,0.971c0.403,0.415,0.727,0.896,0.971,1.446c0.244,0.549,0.366,1.142,0.366,1.776
	C85.517,19.209,85.383,19.807,85.114,20.417z"/>
<path fill="#CEBFAC" d="M100.824,67.438c0,1.44-0.507,2.668-1.52,3.681s-2.24,1.52-3.68,1.52c-1.441,0-2.667-0.507-3.68-1.52
	c-1.014-1.013-1.52-2.24-1.52-3.681s0.506-2.667,1.52-3.681c1.013-1.013,2.239-1.52,3.68-1.52c1.44,0,2.667,0.507,3.68,1.52
	C100.317,64.771,100.824,65.998,100.824,67.438z"/>
<path fill="#CEBFAC" d="M113.458,35.395c3.247-2.514,7.068-3.771,11.462-3.771c2.563,0,4.999,0.501,7.306,1.502
	c2.307,1.001,4.339,2.361,6.097,4.083c1.758,1.721,3.149,3.748,4.175,6.079s1.538,4.815,1.538,7.452v18.054
	c0,1.075-0.373,1.984-1.117,2.729c-0.745,0.745-1.643,1.117-2.692,1.117c-1.075,0-1.984-0.372-2.728-1.117
	c-0.745-0.744-1.117-1.653-1.117-2.729V50.739c0-1.563-0.306-3.04-0.916-4.431c-0.61-1.393-1.435-2.606-2.472-3.645
	c-1.038-1.037-2.252-1.861-3.644-2.472s-2.869-0.915-4.431-0.915c-1.587,0-3.07,0.299-4.45,0.896
	c-1.379,0.599-2.594,1.423-3.644,2.473c-1.05,1.05-1.874,2.27-2.472,3.662c-0.599,1.391-0.897,2.868-0.897,4.431v18.054
	c0,1.075-0.373,1.984-1.117,2.729c-0.745,0.745-1.642,1.117-2.691,1.117c-1.075,0-1.984-0.372-2.729-1.117
	c-0.745-0.744-1.117-1.653-1.117-2.729V35.469c0-1.05,0.372-1.953,1.117-2.711c0.745-0.756,1.654-1.135,2.729-1.135
	c1.049,0,1.947,0.379,2.691,1.135C113.085,33.516,113.458,34.395,113.458,35.395z"/>
<path fill="#CEBFAC" d="M160.15,24.336c0,1.244-0.439,2.307-1.318,3.186s-1.941,1.318-3.187,1.318s-2.308-0.439-3.187-1.318
	s-1.318-1.941-1.318-3.186c0-1.246,0.439-2.308,1.318-3.187s1.941-1.318,3.187-1.318s2.308,0.439,3.187,1.318
	S160.15,23.09,160.15,24.336z M151.837,68.793V35.469c0-1.074,0.372-1.983,1.117-2.729c0.744-0.745,1.642-1.117,2.691-1.117
	s1.946,0.372,2.691,1.117s1.13,1.654,1.153,2.729v33.324c-0.023,1.075-0.408,1.984-1.153,2.729
	c-0.745,0.745-1.642,1.117-2.691,1.117s-1.947-0.372-2.691-1.117C152.209,70.777,151.837,69.868,151.837,68.793z"/>
<path fill="#CEBFAC" d="M198.565,61.029c1.099,0,2.008,0.361,2.729,1.081c0.72,0.72,1.08,1.63,1.08,2.728
	c0,1.075-0.403,2.015-1.208,2.82c-3.785,3.32-8.24,4.98-13.367,4.98c-5.664,0-10.498-2.002-14.502-6.006s-6.006-8.838-6.006-14.502
	s2.002-10.498,6.006-14.502s8.838-6.006,14.502-6.006c5.15,0,9.607,1.66,13.367,4.98c0.879,0.781,1.318,1.746,1.318,2.893
	c0,1.1-0.361,2.015-1.081,2.747s-1.63,1.099-2.728,1.099c-0.929,0-1.758-0.293-2.49-0.879c-1.246-1.05-2.552-1.843-3.919-2.381
	c-1.368-0.536-2.856-0.805-4.468-0.805c-1.782,0-3.455,0.335-5.018,1.007s-2.93,1.587-4.102,2.746
	c-1.172,1.16-2.094,2.521-2.765,4.083c-0.671,1.563-1.007,3.235-1.007,5.018s0.336,3.455,1.007,5.018s1.593,2.924,2.765,4.083
	s2.539,2.075,4.102,2.746c1.563,0.672,3.235,1.007,5.018,1.007c1.611,0,3.1-0.262,4.468-0.787c1.367-0.524,2.661-1.312,3.882-2.361
	C196.832,61.322,197.637,61.055,198.565,61.029z"/>
<path fill="#CEBFAC" d="M249.396,52.131c0,5.713-2.002,10.547-6.006,14.502c-4.053,4.004-8.887,6.006-14.502,6.006
	c-5.664,0-10.498-2.002-14.502-6.006c-4.005-4.004-6.006-8.838-6.006-14.502s2.001-10.498,6.006-14.502
	c4.004-4.004,8.838-6.006,14.502-6.006c5.615,0,10.449,2.002,14.502,6.006c2.001,2.002,3.497,4.211,4.486,6.629
	C248.864,46.674,249.371,49.299,249.396,52.131z M228.888,39.277c-1.808,0-3.491,0.342-5.054,1.025s-2.918,1.605-4.064,2.765
	c-1.148,1.159-2.058,2.521-2.729,4.083c-0.672,1.563-1.008,3.223-1.008,4.98s0.336,3.418,1.008,4.98
	c0.671,1.563,1.58,2.924,2.729,4.083c1.146,1.16,2.502,2.082,4.064,2.765c1.563,0.685,3.246,1.025,5.054,1.025
	c1.782,0,3.454-0.341,5.017-1.025c1.563-0.683,2.924-1.611,4.084-2.783c1.159-1.172,2.074-2.532,2.746-4.083
	c0.672-1.55,1.008-3.204,1.008-4.962s-0.336-3.411-1.008-4.962s-1.587-2.911-2.746-4.083c-1.16-1.172-2.521-2.1-4.084-2.783
	S230.67,39.277,228.888,39.277z"/>
<path fill="#6D4D2B" d="M256.28,18.623c0-0.635,0.122-1.228,0.366-1.776c0.244-0.55,0.567-1.031,0.971-1.446
	c0.402-0.415,0.885-0.738,1.446-0.971s1.147-0.348,1.758-0.348c1.122,0,2.087,0.391,2.894,1.172
	c0.805,0.781,1.465,1.739,1.977,2.874c0.514,1.136,0.885,2.308,1.117,3.516c0.232,1.209,0.348,2.338,0.348,3.388
	c0,4.321-1.844,8.691-5.529,13.11c-0.659,0.659-1.404,0.989-2.234,0.989c-0.854,0-1.587-0.306-2.197-0.916
	c-0.609-0.61-0.915-1.343-0.915-2.197c0-0.415,0.085-0.842,0.257-1.281c1.098-2.686,1.647-5.237,1.647-7.654
	c0-2.295-0.501-4.517-1.501-6.665C256.414,19.807,256.28,19.209,256.28,18.623z"/>
<path fill="#6D4D2B" d="M288.434,52.094c0,6.006-0.714,11.945-2.143,17.816c-1.428,5.872-3.559,11.773-6.391,17.707
	c-0.439,0.927-0.951,1.593-1.537,1.995c-0.586,0.403-1.27,0.604-2.051,0.604c-1.1,0-2.009-0.379-2.729-1.135
	c-0.721-0.758-1.08-1.686-1.08-2.783c0-0.367,0.042-0.696,0.128-0.989c0.085-0.293,0.201-0.599,0.348-0.915
	c2.539-5.299,4.491-10.676,5.859-16.132c1.367-5.457,2.051-10.834,2.051-16.132c0-10.693-2.612-21.387-7.837-32.08
	c-0.293-0.464-0.477-1.11-0.549-1.941c0-0.536,0.097-1.043,0.293-1.52c0.195-0.476,0.463-0.896,0.805-1.264
	c0.342-0.365,0.745-0.652,1.209-0.86c0.463-0.207,0.965-0.312,1.502-0.312c0.781,0,1.477,0.227,2.087,0.678
	c0.61,0.452,1.122,1.105,1.538,1.959c2.832,5.885,4.949,11.75,6.354,17.597C287.695,40.235,288.409,46.138,288.434,52.094z"/>
<g id="Layer_6">
	<text transform="matrix(1 0 0 1 303 307.7285)" display="none" fill="#CEBFAC" font-family="'Comfortaa-Bold'" font-size="300">co.</text>
</g>
</svg>
